name rise30.6535peak61.5555fall82.9339.mot
datacolumns 19
datarows 21
range 12.67828500000000 12.71161300000000
endheader
time	ground_force1_vx	ground_force1_vy	ground_force1_vz	ground_force1_px	ground_force1_py	ground_force1_pz	ground_force2_vx	ground_force2_vy	ground_force2_vz	ground_force2_px	ground_force2_py	ground_force2_pz	ground_torque1_x	ground_torque1_y	ground_torque1_z	ground_torque2_x	ground_torque2_y	ground_torque2_z	
12.67828500000000	69.77070900000000	771.35173599999996	52.69670000000000	0.39312500000000	0.00000000000000	0.06382600000000	0.00000000000000	0.00000000000000	0.00000000000000	0.00000000000000	0.00000000000000	0.00000000000000	0.00000000000000	30.64748400000000	0.00000000000000	0.00000000000000	0.00000000000000	0.00000000000000	
12.67995200000000	69.02322200000000	771.91757900000005	52.56633600000000	0.39177400000000	0.00000000000000	0.06394100000000	0.00000000000000	0.00000000000000	0.00000000000000	0.00000000000000	0.00000000000000	0.00000000000000	0.00000000000000	30.45189800000000	0.00000000000000	0.00000000000000	0.00000000000000	0.00000000000000	
12.68161300000000	68.28465199999999	772.44222900000000	52.43729800000000	0.39041600000000	0.00000000000000	0.06405900000000	0.00000000000000	0.00000000000000	0.00000000000000	0.00000000000000	0.00000000000000	0.00000000000000	0.00000000000000	30.25805600000000	0.00000000000000	0.00000000000000	0.00000000000000	0.00000000000000	
12.68328400000000	67.55519800000000	772.92513699999995	52.31024200000000	0.38905100000000	0.00000000000000	0.06417900000000	0.00000000000000	0.00000000000000	0.00000000000000	0.00000000000000	0.00000000000000	0.00000000000000	0.00000000000000	30.06656000000000	0.00000000000000	0.00000000000000	0.00000000000000	0.00000000000000	
12.68494400000000	66.83498000000000	773.36567400000001	52.18573700000000	0.38768000000000	0.00000000000000	0.06430100000000	0.00000000000000	0.00000000000000	0.00000000000000	0.00000000000000	0.00000000000000	0.00000000000000	0.00000000000000	29.87794200000000	0.00000000000000	0.00000000000000	0.00000000000000	0.00000000000000	
12.68661500000000	66.12403800000000	773.76315299999999	52.06427300000000	0.38630300000000	0.00000000000000	0.06442500000000	0.00000000000000	0.00000000000000	0.00000000000000	0.00000000000000	0.00000000000000	0.00000000000000	0.00000000000000	29.69266700000000	0.00000000000000	0.00000000000000	0.00000000000000	0.00000000000000	
12.68827800000000	65.42234000000001	774.11684300000002	51.94625900000000	0.38492000000000	0.00000000000000	0.06455200000000	0.00000000000000	0.00000000000000	0.00000000000000	0.00000000000000	0.00000000000000	0.00000000000000	0.00000000000000	29.51113500000000	0.00000000000000	0.00000000000000	0.00000000000000	0.00000000000000	
12.68995100000000	64.72978700000000	774.42598499999997	51.83202400000000	0.38353200000000	0.00000000000000	0.06468000000000	0.00000000000000	0.00000000000000	0.00000000000000	0.00000000000000	0.00000000000000	0.00000000000000	0.00000000000000	29.33367800000000	0.00000000000000	0.00000000000000	0.00000000000000	0.00000000000000	
12.69161700000000	64.04621600000000	774.68981399999996	51.72182100000000	0.38213900000000	0.00000000000000	0.06481000000000	0.00000000000000	0.00000000000000	0.00000000000000	0.00000000000000	0.00000000000000	0.00000000000000	0.00000000000000	29.16057000000000	0.00000000000000	0.00000000000000	0.00000000000000	0.00000000000000	
12.69328500000000	63.37140800000000	774.90756599999997	51.61583200000000	0.38074100000000	0.00000000000000	0.06494100000000	0.00000000000000	0.00000000000000	0.00000000000000	0.00000000000000	0.00000000000000	0.00000000000000	0.00000000000000	28.99202000000000	0.00000000000000	0.00000000000000	0.00000000000000	0.00000000000000	
12.69495000000000	62.70509300000000	775.07849699999997	51.51416600000000	0.37933900000000	0.00000000000000	0.06507400000000	0.00000000000000	0.00000000000000	0.00000000000000	0.00000000000000	0.00000000000000	0.00000000000000	0.00000000000000	28.82818400000000	0.00000000000000	0.00000000000000	0.00000000000000	0.00000000000000	
12.69661700000000	62.04695300000000	775.20190000000002	51.41686400000000	0.37793300000000	0.00000000000000	0.06520900000000	0.00000000000000	0.00000000000000	0.00000000000000	0.00000000000000	0.00000000000000	0.00000000000000	0.00000000000000	28.66915800000000	0.00000000000000	0.00000000000000	0.00000000000000	0.00000000000000	
12.69828200000000	61.39663400000000	775.27711099999999	51.32390500000000	0.37652200000000	0.00000000000000	0.06534500000000	0.00000000000000	0.00000000000000	0.00000000000000	0.00000000000000	0.00000000000000	0.00000000000000	0.00000000000000	28.51499000000000	0.00000000000000	0.00000000000000	0.00000000000000	0.00000000000000	
12.69994900000000	60.75374500000000	775.30352500000004	51.23520800000000	0.37510800000000	0.00000000000000	0.06548300000000	0.00000000000000	0.00000000000000	0.00000000000000	0.00000000000000	0.00000000000000	0.00000000000000	0.00000000000000	28.36567800000000	0.00000000000000	0.00000000000000	0.00000000000000	0.00000000000000	
12.70161500000000	60.11786700000000	775.28061000000002	51.15063500000000	0.37369000000000	0.00000000000000	0.06562100000000	0.00000000000000	0.00000000000000	0.00000000000000	0.00000000000000	0.00000000000000	0.00000000000000	0.00000000000000	28.22117300000000	0.00000000000000	0.00000000000000	0.00000000000000	0.00000000000000	
12.70328000000000	59.48855900000000	775.20790899999997	51.06999800000000	0.37226800000000	0.00000000000000	0.06576100000000	0.00000000000000	0.00000000000000	0.00000000000000	0.00000000000000	0.00000000000000	0.00000000000000	0.00000000000000	28.08138700000000	0.00000000000000	0.00000000000000	0.00000000000000	0.00000000000000	
12.70494900000000	58.86536100000000	775.08505800000000	50.99306000000000	0.37084300000000	0.00000000000000	0.06590100000000	0.00000000000000	0.00000000000000	0.00000000000000	0.00000000000000	0.00000000000000	0.00000000000000	0.00000000000000	27.94618900000000	0.00000000000000	0.00000000000000	0.00000000000000	0.00000000000000	
12.70661500000000	58.24780500000000	774.91178700000000	50.91954400000000	0.36941400000000	0.00000000000000	0.06604200000000	0.00000000000000	0.00000000000000	0.00000000000000	0.00000000000000	0.00000000000000	0.00000000000000	0.00000000000000	27.81541700000000	0.00000000000000	0.00000000000000	0.00000000000000	0.00000000000000	
12.70828200000000	57.63541500000000	774.68793200000005	50.84913100000000	0.36798200000000	0.00000000000000	0.06618400000000	0.00000000000000	0.00000000000000	0.00000000000000	0.00000000000000	0.00000000000000	0.00000000000000	0.00000000000000	27.68887500000000	0.00000000000000	0.00000000000000	0.00000000000000	0.00000000000000	
12.70994600000000	57.02771200000000	774.41343800000004	50.78147200000000	0.36654700000000	0.00000000000000	0.06632600000000	0.00000000000000	0.00000000000000	0.00000000000000	0.00000000000000	0.00000000000000	0.00000000000000	0.00000000000000	27.56633900000000	0.00000000000000	0.00000000000000	0.00000000000000	0.00000000000000	
12.71161300000000	56.42422500000000	774.08836299999996	50.71618700000000	0.36510800000000	0.00000000000000	0.06646900000000	0.00000000000000	0.00000000000000	0.00000000000000	0.00000000000000	0.00000000000000	0.00000000000000	0.00000000000000	27.44756100000000	0.00000000000000	0.00000000000000	0.00000000000000	0.00000000000000	
